#N canvas 219 209 755 330 10;
#X obj 328 14 tgl 15 0 empty empty empty 17 7 0 10 -262144 -1 -1 1
1;
#X msg 43 30 dev;
#X obj 260 91 tgl 15 0 empty empty empty 17 7 0 10 -262144 -1 -1 1
1;
#X msg 494 111 1 1000;
#X msg 442 109 0 1000;
#X msg 284 88 set 50;
#X msg 351 14 set 1;
#X text 43 -39 rendering order of the cards is critical - higher numbers
are rendered in front of lower values. rendering order of the scenes
themselves are of no consequence;
#X text 548 113 fade in/out;
#X obj 357 53 scenes/black-triangle;
#X obj 44 60 glfo/gem-window;
#X obj 274 142 glfo/scene-card 10;
#X connect 0 0 9 0;
#X connect 1 0 10 0;
#X connect 2 0 11 0;
#X connect 3 0 11 2;
#X connect 4 0 11 2;
#X connect 5 0 11 0;
#X connect 6 0 9 0;
#X connect 9 0 11 1;
