#N canvas 218 227 563 452 10;
#X obj 147 385 outlet pos;
#X obj 121 35 notein;
#X obj 177 33 inlet note;
#X text 257 124 create a trigger pulse on midi note;
#X obj 132 160 sel \$1;
#X obj 130 333 f 1;
#X obj 183 200 == 0;
#X obj 180 331 f 0;
#X obj 132 249 demux 1 2;
#X connect 1 0 4 0;
#X connect 1 1 6 0;
#X connect 2 0 4 1;
#X connect 4 0 8 0;
#X connect 5 0 0 0;
#X connect 6 0 8 1;
#X connect 7 0 0 0;
#X connect 8 0 5 0;
#X connect 8 1 7 0;
