#N canvas 307 122 629 446 10;
#X obj 221 46 inlet bang;
#X obj 310 46 inlet delay;
#X text 161 13 send float 1 out with bang;
#X obj 237 250 outlet;
#X text -45 128 if creation arg is not given \, it defaults to zero
;
#X obj 260 97 glitch 1 0 \$1;
#X connect 0 0 5 0;
#X connect 1 0 5 1;
#X connect 5 0 3 0;
