#N canvas 27 16 450 300 10;
#X text 112 187 bang periodic outputs according to duty cycle3;
#X obj -42 9 inlet start;
#X obj 42 13 inlet period;
#X obj 137 20 inlet delay;
#X obj -81 82 metro \$1;
#X obj -27 115 delay \$2;
#X obj -3 193 outlet;
#X obj -66 188 outlet;
#X connect 1 0 4 0;
#X connect 2 0 4 1;
#X connect 3 0 5 1;
#X connect 4 0 5 0;
#X connect 4 0 7 0;
#X connect 5 0 6 0;
