#N canvas 420 170 700 680 10;
#X obj 102 167 t b a;
#X obj 116 255 alpha;
#X floatatom 292 251 5 0 0 0 - - -;
#X obj 334 91 vsl 15 128 0 1 0 0 empty empty empty 0 -8 0 8 -262144
-1 -1 10500 1;
#X obj 119 288 colorRGB 1 1 1 0.888;
#X obj 206 139 loadbang;
#X obj 119 138 gemhead 10;
#X obj 135 489 rectangle 10.66 4;
#X text 100 58 snap size must be same as frame size;
#X obj 126 92 tgl 15 0 empty empty empty 17 7 0 10 -262144 -1 -1 0
1;
#X text 155 89 on/off;
#X obj 128 342 pix_texture;
#X obj 83 250 bng 15 250 50 0 empty empty empty 17 7 0 10 -262144 -1
-1;
#X obj 31 200 == 0;
#X obj 24 125 + 1;
#X obj 37 289 spigot;
#X obj 27 91 f 0;
#X obj 58 91 + 1;
#X msg 174 189 0 0;
#X obj 148 415 translateXYZ;
#X floatatom 201 380 5 0 0 0 - - -;
#X obj 14 169 mod 1;
#X obj 217 167 r glfo_fb_specs;
#X obj 220 196 route dimen;
#X obj 119 226 pix_snap2tex 0 0 100 100;
#X obj 246 438 r glfo_card_width;
#X connect 0 0 15 0;
#X connect 0 0 16 0;
#X connect 0 1 24 0;
#X connect 1 0 4 0;
#X connect 2 0 4 4;
#X connect 3 0 2 0;
#X connect 4 0 11 0;
#X connect 5 0 18 0;
#X connect 6 0 0 0;
#X connect 9 0 6 0;
#X connect 11 0 19 0;
#X connect 12 0 24 0;
#X connect 13 0 15 1;
#X connect 14 0 21 0;
#X connect 15 0 12 0;
#X connect 16 0 17 0;
#X connect 16 0 14 0;
#X connect 17 0 16 1;
#X connect 18 0 24 1;
#X connect 19 0 7 0;
#X connect 20 0 19 3;
#X connect 21 0 13 0;
#X connect 22 0 23 0;
#X connect 23 0 24 2;
#X connect 24 0 1 0;
#X connect 25 0 7 1;
