#N canvas 165 155 622 447 10;
#X obj 230 119 gemframebuffer;
#X text 301 11 need perspec in order to preserve aspect ratio of framebuffer
image;
#X obj 369 227 outlet tex;
#X obj 308 313 outlet gemlist;
#X obj 203 168 translateXYZ 0 0 -4;
#X obj 302 49 r glfo_fb_specs;
#X obj 194 -4 inlet render;
#X obj 206 37 gemhead;
#X obj 443 229 glfo/scene-card \$1;
#X obj 194 193 t a a;
#X obj 142 410 pix_buffer_write \$1-framebuffer;
#X obj 146 218 t a b;
#X msg 179 250 snap;
#X msg 369 365 0;
#X obj 144 334 pix_snap 0 0 800 300;
#X msg 236 307 0;
#X obj 145 373 t a b;
#X text 456 365 temporary storage;
#X obj 439 345 pix_buffer \$1-framebuffer 1;
#X connect 0 0 4 0;
#X connect 0 1 2 0;
#X connect 0 1 8 1;
#X connect 4 0 9 0;
#X connect 5 0 0 0;
#X connect 6 0 7 0;
#X connect 7 0 0 0;
#X connect 9 0 11 0;
#X connect 9 1 3 0;
#X connect 11 0 14 0;
#X connect 11 1 12 0;
#X connect 12 0 14 0;
#X connect 13 0 10 1;
#X connect 14 0 16 0;
#X connect 15 0 14 2;
#X connect 16 0 10 0;
#X connect 16 1 13 0;
