#N canvas 82 173 753 471 10;
#X obj 230 119 gemframebuffer;
#X text 301 11 need perspec in order to preserve aspect ratio of framebuffer
image;
#X obj 369 227 outlet tex;
#X obj 329 297 outlet gemlist;
#X obj 203 168 translateXYZ 0 0 -4;
#X obj 302 49 r glfo_fb_specs;
#X obj 194 -4 inlet render;
#X obj 206 37 gemhead;
#X obj 194 193 t a a;
#X obj 142 410 pix_buffer_write \$1-framebuffer;
#X obj 146 218 t a b;
#X msg 179 250 snap;
#X msg 369 365 0;
#X obj 144 334 pix_snap 0 0 800 300;
#X obj 145 373 t a b;
#X text 456 365 temporary storage;
#X obj 439 345 pix_buffer \$1-framebuffer 1;
#X obj 443 173 spigot;
#X text 458 138 turn old framebuffer rendering on;
#X obj 440 139 tgl 15 0 empty empty empty 17 7 0 10 -262144 -1 -1 0
1;
#X obj 443 229 #glfo/scene-card \$1;
#X obj 217 259 r glfo_fb_specs;
#X obj 220 288 route dimen;
#X connect 0 0 4 0;
#X connect 0 1 2 0;
#X connect 0 1 17 0;
#X connect 4 0 8 0;
#X connect 5 0 0 0;
#X connect 6 0 7 0;
#X connect 7 0 0 0;
#X connect 8 0 10 0;
#X connect 8 1 3 0;
#X connect 10 0 13 0;
#X connect 10 1 11 0;
#X connect 11 0 13 0;
#X connect 12 0 9 1;
#X connect 13 0 14 0;
#X connect 14 0 9 0;
#X connect 14 1 12 0;
#X connect 17 0 20 1;
#X connect 19 0 17 1;
#X connect 21 0 22 0;
#X connect 22 0 13 2;
