#N canvas 364 64 543 300 10;
#X obj 151 29 inlet;
#X obj 157 102 delay \$3;
#X obj 197 138 f \$1;
#X obj 160 138 f \$2;
#X obj 182 195 outlet;
#X text 155 -8 temporarily toggle output to second arg;
#X obj 452 30 inlet delay;
#X obj 157 67 t b b;
#X obj 327 28 inlet glitch_value;
#X obj 200 31 inlet steady_value;
#X connect 0 0 7 0;
#X connect 1 0 3 0;
#X connect 2 0 4 0;
#X connect 3 0 4 0;
#X connect 6 0 1 1;
#X connect 7 0 1 0;
#X connect 7 1 2 0;
#X connect 8 0 3 1;
#X connect 9 0 2 1;
