#N canvas 55 360 587 308 10;
#X msg 62 131 lighting 1;
#X obj 247 135 world_light;
#X obj 182 220 outlet to_gemwin;
#X obj 86 95 loadbang;
#X obj 192 45 gemhead;
#X obj 340 25 loadbang;
#X obj 340 83 f \$1;
#X obj 372 83 f \$2;
#X obj 403 83 f \$3;
#X obj 340 111 pack f f f;
#X obj 340 54 t b b b;
#X obj 462 25 inlet;
#X msg 263 83 debug \$1;
#X obj 266 54 tgl 15 0 empty empty empty 17 7 0 10 -262144 -1 -1 0
1;
#X connect 0 0 2 0;
#X connect 3 0 0 0;
#X connect 4 0 1 0;
#X connect 5 0 10 0;
#X connect 6 0 9 0;
#X connect 7 0 9 1;
#X connect 8 0 9 2;
#X connect 9 0 1 1;
#X connect 10 0 6 0;
#X connect 10 1 7 0;
#X connect 10 2 8 0;
#X connect 11 0 1 1;
#X connect 12 0 1 0;
#X connect 13 0 12 0;
