#N canvas 177 247 563 452 10;
#X obj 147 385 outlet pos;
#X obj 76 33 notein;
#X obj 77 62 spigot;
#X obj 177 33 inlet note;
#X text 257 124 create a trigger pulse on midi note;
#X obj 177 334 tgl 15 0 empty empty empty 17 7 0 10 -262144 -1 -1 1
1;
#X obj 242 308 bng 15 250 50 0 empty empty empty 17 7 0 10 -262144
-1 -1;
#X obj 145 258 sel \$1;
#X obj 87 345 f 1;
#X obj 250 32 inlet toggle;
#X text 17 80 filter note offs;
#X obj 52 163 print;
#X obj 245 242 f 0;
#X obj 243 211 loadbang;
#X obj 143 285 demux 1 2;
#X obj 36 313 t b b;
#X obj 45 345 f 0;
#X text 30 288 output 1 then 0;
#X connect 1 0 2 0;
#X connect 1 0 11 0;
#X connect 1 1 2 1;
#X connect 2 0 7 0;
#X connect 3 0 7 1;
#X connect 5 0 0 0;
#X connect 7 0 14 0;
#X connect 8 0 0 0;
#X connect 9 0 14 1;
#X connect 12 0 14 1;
#X connect 13 0 12 0;
#X connect 14 0 6 0;
#X connect 14 0 15 0;
#X connect 14 1 5 0;
#X connect 15 0 16 0;
#X connect 15 1 8 0;
#X connect 16 0 0 0;
