#N canvas 560 417 857 431 10;
#X obj 57 -14 inlet;
#X obj 235 311 outlet;
#X obj 206 8 route \$1;
#X obj 310 125 f;
#X obj 143 -18 r \$1;
#X obj -52 177 unpack s f f f;
#X obj 11 50 route glitch;
#X msg -166 -14 glitch list bang 1 0.02 50;
#X text -170 -33 message format for glitch;
#X obj 391 32 route animate;
#X obj 396 179 line 0 10;
#X msg 390 3 animate 1 1000;
#X text 391 -20 message format for animate;
#X obj 210 -22 r param;
#X text 200 -44 common message bus for all params;
#X obj -85 221 glfo/glitch;
#X obj 127 199 s snapshot;
#X obj 143 72 route snapshot;
#X obj 131 118 symbol \$1;
#X obj 141 160 pack s f;
#X obj 232 246 nop;
#X connect 0 0 6 0;
#X connect 2 0 6 0;
#X connect 3 0 20 0;
#X connect 4 0 6 0;
#X connect 5 0 15 0;
#X connect 5 1 15 1;
#X connect 5 2 15 2;
#X connect 5 3 15 3;
#X connect 6 0 5 0;
#X connect 6 1 17 0;
#X connect 7 0 6 0;
#X connect 9 0 10 0;
#X connect 9 1 3 0;
#X connect 10 0 20 0;
#X connect 13 0 2 0;
#X connect 15 0 20 0;
#X connect 17 0 18 0;
#X connect 17 1 9 0;
#X connect 18 0 19 0;
#X connect 19 0 16 0;
#X connect 20 0 1 0;
#X connect 20 0 19 1;
