#N canvas 560 408 857 431 10;
#X obj 20 -21 inlet;
#X obj 235 311 outlet;
#X obj 310 125 f;
#X obj -52 177 unpack s f f f;
#X obj 11 50 route glitch;
#X msg -166 -14 glitch list bang 1 0.02 50;
#X text -170 -33 message format for glitch;
#X obj 391 32 route animate;
#X obj 396 179 line 0 10;
#X msg 390 3 animate 1 1000;
#X text 391 -20 message format for animate;
#X text 75 -40 common message bus for all params;
#X obj -85 221 glfo/glitch;
#X obj 127 199 s snapshot;
#X obj 143 72 route snapshot;
#X obj 131 126 symbol \$1;
#X obj 141 160 pack s f;
#X obj 232 246 nop;
#X obj 85 -18 r \$2-snap;
#X obj 138 95 bang;
#X obj 272 -18 r \$2-set;
#X obj 242 18 route \$1;
#X connect 0 0 4 0;
#X connect 2 0 17 0;
#X connect 3 0 12 0;
#X connect 3 1 12 1;
#X connect 3 2 12 2;
#X connect 3 3 12 3;
#X connect 4 0 3 0;
#X connect 4 1 14 0;
#X connect 5 0 4 0;
#X connect 7 0 8 0;
#X connect 7 1 2 0;
#X connect 8 0 17 0;
#X connect 12 0 17 0;
#X connect 14 0 19 0;
#X connect 14 1 7 0;
#X connect 15 0 16 0;
#X connect 16 0 13 0;
#X connect 17 0 1 0;
#X connect 17 0 16 1;
#X connect 18 0 4 0;
#X connect 19 0 15 0;
#X connect 20 0 21 0;
#X connect 21 0 4 0;
