#N canvas 447 131 636 533 10;
#X obj 142 221 pix_texture;
#X text 291 61 fetch framebuffer-pix;
#X msg 292 89 0;
#X obj 170 86 t a b;
#X obj 144 53 gemhead \$1;
#X obj 144 122 pix_buffer_read \$1-framebuffer;
#X obj 142 269 rectangle 10.667 4;
#X obj 264 244 r glfo_card_width;
#X obj 142 189 pix_color;
#X msg 187 154 1 0 0 1;
#X connect 0 0 6 0;
#X connect 2 0 5 1;
#X connect 3 0 5 0;
#X connect 3 1 2 0;
#X connect 4 0 3 0;
#X connect 5 0 8 0;
#X connect 7 0 6 1;
#X connect 8 0 0 0;
#X connect 9 0 8 1;
