#N canvas 70 290 645 389 10;
#X obj 322 162 rotateXYZ;
#X obj 254 131 translateXYZ;
#X obj 253 55 inlet;
#X obj 322 245 outlet;
#X obj 110 128 knob 16 16 -10 10 0 0 empty empty empty 0 -8 0 8 -262144
-1 -1 0 1;
#X obj 136 129 knob 16 16 -10 10 0 0 empty empty empty 0 -8 0 8 -262144
-1 -1 0 1;
#X obj 162 128 knob 16 16 -10 10 0 0 empty empty empty 0 -8 0 8 -262144
-1 -1 0 1;
#X obj 110 153 knob 16 16 0 360 0 0 empty empty empty 0 -8 0 8 -262144
-1 -1 0 1;
#X obj 136 154 knob 16 16 0 360 0 0 empty empty empty 0 -8 0 8 -262144
-1 -1 0 1;
#X obj 162 153 knob 16 16 0 360 0 0 empty empty empty 0 -8 0 8 -262144
-1 -1 0 1;
#X obj 377 30 inlet;
#X obj 357 72 route x y z 0x 0y 0z;
#X obj 447 17 r \$1-transform;
#X connect 0 0 3 0;
#X connect 1 0 0 0;
#X connect 2 0 1 0;
#X connect 4 0 1 1;
#X connect 5 0 1 2;
#X connect 6 0 1 3;
#X connect 7 0 0 1;
#X connect 8 0 0 2;
#X connect 9 0 0 3;
#X connect 10 0 11 0;
#X connect 11 0 1 1;
#X connect 11 1 1 2;
#X connect 11 2 1 3;
#X connect 11 3 0 1;
#X connect 11 4 0 2;
#X connect 11 5 0 3;
#X connect 12 0 11 0;
#X coords 0 -1 1 1 85 80 1 100 100;
