#N canvas 147 199 657 534 10;
#X text 360 515 updated for Pd version 0.39;
#X obj 29 139 *~ -1;
#X obj 29 164 +~ 1;
#X obj 15 206 min~;
#X obj 16 241 *~ 4;
#X obj 25 275 -~ 1;
#X obj 29 105 phasor~ \$1;
#X obj 32 56 inlet freq;
#X obj 24 319 outlet~;
#X text 136 50 triangle wave \, -1 .. 1;
#X connect 1 0 2 0;
#X connect 2 0 3 1;
#X connect 3 0 4 0;
#X connect 4 0 5 0;
#X connect 5 0 8 0;
#X connect 6 0 1 0;
#X connect 6 0 3 0;
#X connect 7 0 6 0;
