#N canvas 507 75 700 680 10;
#X obj 119 226 pix_snap2tex;
#X obj 206 158 t b b;
#X obj 102 167 t b a;
#X obj 116 255 alpha;
#X floatatom 292 251 5 0 0 0 - - -;
#X obj 300 84 vsl 15 128 0 1 0 0 empty empty empty 0 -8 0 8 -262144
-1 -1 12600 1;
#X obj 119 288 colorRGB 1 1 1 0.888;
#X obj 206 139 loadbang;
#X obj 119 138 gemhead 10;
#X obj 135 489 rectangle 10.66 4;
#X text 100 58 snap size must be same as frame size;
#X obj 126 92 tgl 15 0 empty empty empty 17 7 0 10 -262144 -1 -1 0
1;
#X text 155 89 on/off;
#X obj 128 342 pix_texture;
#X msg 341 364;
#X msg 232 205 800 300;
#X floatatom 166 163 5 0 0 0 - - -;
#X obj 83 250 bng 15 250 50 0 empty empty empty 17 7 0 10 -262144 -1
-1;
#X obj 31 200 == 0;
#X obj 24 125 + 1;
#X obj 37 289 spigot;
#X obj 26 242 print;
#X obj 27 91 f 0;
#X obj 58 91 + 1;
#X msg 172 201 0 0;
#X obj 148 415 translateXYZ;
#X msg 244 410;
#X floatatom 201 380 5 0 0 0 - - -;
#X obj 14 169 mod 1;
#X connect 0 0 3 0;
#X connect 1 0 24 0;
#X connect 1 1 15 0;
#X connect 2 0 20 0;
#X connect 2 0 22 0;
#X connect 2 1 0 0;
#X connect 3 0 6 0;
#X connect 4 0 6 4;
#X connect 5 0 4 0;
#X connect 6 0 13 0;
#X connect 7 0 1 0;
#X connect 8 0 2 0;
#X connect 11 0 8 0;
#X connect 13 0 25 0;
#X connect 15 0 0 2;
#X connect 16 0 24 0;
#X connect 17 0 0 0;
#X connect 18 0 20 1;
#X connect 18 0 21 0;
#X connect 19 0 21 0;
#X connect 19 0 28 0;
#X connect 20 0 17 0;
#X connect 22 0 23 0;
#X connect 22 0 19 0;
#X connect 23 0 22 1;
#X connect 24 0 0 1;
#X connect 25 0 9 0;
#X connect 27 0 25 3;
#X connect 28 0 18 0;
