#N canvas 0 22 642 509 10;
#X obj 154 125 r snapshot;
#X obj 154 252 print;
#X obj 206 208 t l;
#X obj 154 209 list;
#X obj 248 174 bng 15 250 50 0 empty empty empty 17 7 0 10 -262144
-1 -1;
#X text 243 154 clear list;
#X connect 0 0 3 0;
#X connect 2 0 3 1;
#X connect 3 0 1 0;
#X connect 3 0 2 0;
#X connect 4 0 2 0;
