#N canvas 204 226 755 330 10;
#X msg 30 77 dev;
#X msg 70 77 perf;
#X msg 116 77 destroy;
#X obj 430 55 vradio 15 1 0 3 empty empty empty 0 -8 0 10 -262144 -1
-1 0;
#X obj 430 122 s select_card;
#X msg 177 78 dimen 120 200;
#X obj 32 209 scenes/triangle 1;
#X obj 32 237 scenes/square 2;
#X text 454 54 scene select;
#X text 28 49 create the glfo window;
#X text 28 166 rendering order of the cards is important - higher numbers
are rendered in front of lower values. By convention rendering order
is the first creation argument of a scene.;
#X obj 31 107 ../glfo/gem-window;
#X connect 0 0 11 0;
#X connect 1 0 11 0;
#X connect 2 0 11 0;
#X connect 3 0 4 0;
#X connect 5 0 11 0;
