#N canvas 282 20 650 511 10;
#X msg 210 86 draw line;
#X obj 221 48 loadbang;
#X obj 183 -53 inlet render;
#X obj 174 133 triangle 1 1;
#X text 180 -89 scene template - simple black triangle;
#X obj 177 3 ../glfo/glfo-framebuffer \$1;
#X connect 1 0 0 0;
#X connect 2 0 5 0;
#X connect 5 0 3 0;
