#N canvas 476 43 813 694 10;
#X floatatom 267 61 5 0 0 0 - - -;
#X obj 173 211 alpha;
#X floatatom 153 179 1 0 1 0 - - -;
#X obj 163 107 colorRGB 0.5 0.5 0.5 1;
#X msg 188 357 draw line;
#X obj 31 117 *;
#X obj 57 83 nbx 5 14 -1e+37 1e+37 0 0 empty empty empty 0 -8 0 10
-262144 -1 -1 0 256;
#X obj 199 319 loadbang;
#X obj 195 -30 inlet render;
#X obj 245 32 gemframebuffer;
#X obj 570 402 outlet tex;
#X obj 171 174 translateXYZ 0 0 -4;
#X obj 200 4 gemhead;
#X msg 334 5 dimen 800 300;
#X msg 323 -18 perspec -2.66 2.66 -1 1 1 20;
#X text 318 -51 need perspec in order to preserve aspect ratio of framebuffer
image;
#X obj 5 47 tools/control-noise 10;
#X obj 152 404 triangle 1 1;
#X text 180 -89 scene template - simple black triangle;
#X connect 0 0 3 4;
#X connect 1 0 17 0;
#X connect 2 0 1 0;
#X connect 3 0 11 0;
#X connect 4 0 17 0;
#X connect 5 0 11 1;
#X connect 5 0 11 2;
#X connect 6 0 5 1;
#X connect 7 0 4 0;
#X connect 8 0 12 0;
#X connect 9 0 3 0;
#X connect 9 1 10 0;
#X connect 11 0 1 0;
#X connect 12 0 9 0;
#X connect 13 0 9 0;
#X connect 14 0 9 0;
#X connect 16 0 5 0;
