#N canvas 406 228 450 300 10;
#X obj 270 135 snapshot~;
#X obj 138 62 noise~;
#X obj 294 70 f 0;
#X obj 342 63 loadbang;
#X obj 273 189 outlet;
#X obj 340 96 metro \$1;
#X obj 136 21 inlet freq;
#X obj 223 20 inlet noise;
#X obj 259 97 osc~ \$2;
#X obj 186 96 *~;
#X obj 307 21 inlet reset;
#X connect 0 0 4 0;
#X connect 1 0 9 0;
#X connect 2 0 8 1;
#X connect 3 0 5 0;
#X connect 5 0 0 0;
#X connect 6 0 8 0;
#X connect 7 0 9 1;
#X connect 8 0 0 0;
#X connect 9 0 0 0;
#X connect 10 0 2 0;
