#N canvas 55 26 629 470 10;
#X obj 51 80 unpack f f;
#X obj 67 110 /;
#X floatatom 65 140 5 0 0 0 - - -;
#X msg 160 80 dimen \$1 \$2;
#X obj 292 206 * 4;
#X obj 111 19 inlet dimen;
#X obj 73 387 outlet to_gemwin;
#X obj 288 250 outlet card_width;
#X text 272 176 set width based on aspect ratio;
#X text 273 155 height of the window is always 4;
#X text -36 291 need perspec in order to preserve aspect ratio of framebuffer
image;
#X msg 40 349 perspec \$1 \$2 -1 1 1 20;
#X obj 70 240 pack f f;
#X obj 8 208 -;
#X obj 55 208 f 0;
#X obj 124 278 print;
#X obj 56 172 t b f f;
#X connect 0 0 1 0;
#X connect 0 1 1 1;
#X connect 1 0 2 0;
#X connect 2 0 4 0;
#X connect 2 0 16 0;
#X connect 4 0 7 0;
#X connect 5 0 0 0;
#X connect 5 0 3 0;
#X connect 11 0 6 0;
#X connect 12 0 11 0;
#X connect 12 0 15 0;
#X connect 13 0 12 0;
#X connect 14 0 13 0;
#X connect 16 0 14 0;
#X connect 16 1 13 1;
#X connect 16 2 12 1;
