#N canvas 33 26 629 470 10;
#X obj 51 80 unpack f f;
#X obj 67 110 /;
#X floatatom 66 167 5 0 0 0 - - -;
#X msg 160 80 dimen \$1 \$2;
#X obj 292 206 * 4;
#X obj 111 19 inlet dimen;
#X obj 68 327 outlet to_gemwin;
#X obj 288 250 outlet card_width;
#X text 272 176 set width based on aspect ratio;
#X text 273 155 height of the window is always 4;
#X text -41 231 need perspec in order to preserve aspect ratio of framebuffer
image;
#X msg 37 266 perspec -\$1 \$1 -1 1 1 20;
#X connect 0 0 1 0;
#X connect 0 1 1 1;
#X connect 1 0 2 0;
#X connect 2 0 11 0;
#X connect 2 0 4 0;
#X connect 3 0 6 0;
#X connect 4 0 7 0;
#X connect 5 0 0 0;
#X connect 5 0 3 0;
#X connect 11 0 6 0;
