#N canvas 41 21 963 462 10;
#X msg 49 91 create \, 1;
#X msg 132 92 destroy;
#X msg 282 64 fullscreen \$1;
#X obj 283 4 vradio 15 1 0 3 empty empty empty 0 -8 0 10 -262144 -1
-1 0;
#X obj 40 228 gemwin 60;
#X msg 134 6 offset 1280 -50;
#X text 301 2 windowed;
#X text 302 17 main LCD;
#X text 302 32 external display;
#X text 39 -25 for dual screen performances need dimen and offset;
#X msg 41 6 dimen 1600 600;
#X msg 287 141 lighting 1;
#X msg 49 59 dimen 800 300;
#X text 48 41 half size for development;
#X obj -33 -86 inlet;
#X obj -31 -58 route dev;
#X text -26 -108 quick start in development mode by sending [dev( message
;
#X msg 429 33 dimen 800 300;
#X msg 418 10 perspec -2.66 2.66 -1 1 1 20;
#X text 413 -27 need perspec in order to preserve aspect ratio of framebuffer
image;
#X obj 417 146 s glfo_fb_specs;
#X msg 436 73 perspec -1.33 1.33 -1 1 1 20;
#X msg 447 96 dimen 400 300;
#X obj 457 323 s glfo_card_width;
#X text 411 197 set width based on aspect ratio;
#X obj 52 -75 route perf;
#X obj 52 -52 t b b b;
#X obj -24 -1 t b b b;
#X msg 144 60 offset 0 0;
#X obj 138 -76 route destroy;
#X msg 523 31 dimen 1600 600;
#X obj 288 117 loadbang;
#X text 281 98 always enable lighting;
#X text 412 176 height of the window is always 4;
#X obj 754 69 dimen;
#X msg 759 13 800 300;
#X obj 767 220 recreate-gemwin;
#X obj 774 183 bng 15 250 50 0 empty empty empty 17 7 0 10 -262144
-1 -1;
#X obj 226 136 lighting;
#X connect 0 0 4 0;
#X connect 1 0 4 0;
#X connect 2 0 4 0;
#X connect 3 0 2 0;
#X connect 5 0 4 0;
#X connect 10 0 4 0;
#X connect 11 0 4 0;
#X connect 12 0 4 0;
#X connect 14 0 15 0;
#X connect 14 0 25 0;
#X connect 14 0 29 0;
#X connect 15 0 27 0;
#X connect 17 0 20 0;
#X connect 18 0 20 0;
#X connect 21 0 20 0;
#X connect 22 0 20 0;
#X connect 25 0 26 0;
#X connect 26 0 0 0;
#X connect 26 1 10 0;
#X connect 26 2 5 0;
#X connect 27 0 0 0;
#X connect 27 1 12 0;
#X connect 27 2 28 0;
#X connect 28 0 4 0;
#X connect 29 0 1 0;
#X connect 30 0 20 0;
#X connect 31 0 11 0;
#X connect 34 0 20 0;
#X connect 34 1 23 0;
#X connect 35 0 34 0;
#X connect 36 0 4 0;
#X connect 37 0 36 0;
