#N canvas 146 168 963 462 10;
#X msg 49 91 create \, 1;
#X msg 132 92 destroy;
#X msg 282 64 fullscreen \$1;
#X obj 283 4 vradio 15 1 0 3 empty empty empty 0 -8 0 10 -262144 -1
-1 0;
#X obj 52 243 gemwin 60;
#X msg 134 6 offset 1280 -50;
#X text 301 2 windowed;
#X text 302 17 main LCD;
#X text 302 32 external display;
#X text 39 -25 for dual screen performances need dimen and offset;
#X msg 41 6 dimen 1600 600;
#X msg 49 59 dimen 800 300;
#X text 48 41 half size for development;
#X obj -33 -86 inlet;
#X obj -31 -58 route dev;
#X text -26 -108 quick start in development mode by sending [dev( message
;
#X obj 631 164 s glfo_fb_specs;
#X obj 52 -75 route perf;
#X obj 52 -52 t b b b;
#X obj -24 -1 t b b b;
#X msg 144 60 offset 0 0;
#X obj 138 -76 route destroy;
#X obj 754 69 dimen;
#X msg 742 -17 800 300;
#X msg 802 70 0 \, destroy \, create \, 1;
#X obj 755 20 t b l;
#X msg 798 -16 200 400;
#X obj 180 163 lighting 1 1 1;
#X connect 0 0 4 0;
#X connect 1 0 4 0;
#X connect 2 0 4 0;
#X connect 3 0 2 0;
#X connect 5 0 4 0;
#X connect 10 0 4 0;
#X connect 11 0 4 0;
#X connect 13 0 14 0;
#X connect 13 0 17 0;
#X connect 13 0 21 0;
#X connect 14 0 19 0;
#X connect 17 0 18 0;
#X connect 18 0 0 0;
#X connect 18 1 10 0;
#X connect 18 2 5 0;
#X connect 19 0 0 0;
#X connect 19 1 11 0;
#X connect 19 2 20 0;
#X connect 20 0 4 0;
#X connect 21 0 1 0;
#X connect 22 0 4 0;
#X connect 22 1 16 0;
#X connect 23 0 25 0;
#X connect 24 0 4 0;
#X connect 25 0 24 0;
#X connect 25 1 22 0;
#X connect 26 0 25 0;
#X connect 27 0 4 0;
