#N canvas 646 315 507 414 10;
#X msg 49 91 create \, 1;
#X msg 132 92 destroy;
#X msg 282 64 fullscreen \$1;
#X obj 283 4 vradio 15 1 0 3 empty empty empty 0 -8 0 10 -262144 -1
-1 0;
#X obj 40 190 gemwin 60;
#X msg 134 6 offset 1280 -50;
#X text 301 2 windowed;
#X text 302 17 main LCD;
#X text 302 32 external display;
#X text 39 -25 for dual screen performances need dimen and offset;
#X msg 41 6 dimen 1600 600;
#X msg 281 121 lighting 1;
#X msg 49 59 dimen 800 300;
#X text 48 41 half size for development;
#X obj -33 -86 inlet;
#X obj -31 -58 route dev;
#X obj -24 -1 t b b;
#X text -26 -108 quick start in development mode by sending [dev( message
;
#X connect 0 0 4 0;
#X connect 1 0 4 0;
#X connect 2 0 4 0;
#X connect 3 0 2 0;
#X connect 5 0 4 0;
#X connect 10 0 4 0;
#X connect 11 0 4 0;
#X connect 12 0 4 0;
#X connect 14 0 15 0;
#X connect 15 0 16 0;
#X connect 16 0 0 0;
#X connect 16 1 12 0;
