#N canvas 364 64 450 300 10;
#X obj 158 81 bng 15 250 50 0 empty empty empty 17 7 0 10 -262144 -1
-1;
#X obj 151 29 inlet;
#X obj 187 108 delay \$3;
#X obj 165 140 f \$1;
#X obj 202 140 f \$2;
#X obj 182 195 outlet;
#X text 255 76 temporarily toggle output to second arg;
#X connect 0 0 2 0;
#X connect 0 0 3 0;
#X connect 1 0 0 0;
#X connect 2 0 4 0;
#X connect 3 0 5 0;
#X connect 4 0 5 0;
