#N canvas 588 237 666 439 10;
#X obj 68 226 snapshot~;
#X obj 69 171 loadbang;
#X obj 194 357 outlet;
#X text 464 85 output snapshotted sin wave for control;
#X obj 183 110 phasor~ \$1;
#X obj 230 230 snapshot~;
#X obj 231 175 loadbang;
#X obj 540 121 inlet waveform;
#X obj 145 232 snapshot~;
#X obj 146 177 loadbang;
#X obj 302 129 tri~ \$1;
#X obj 312 225 snapshot~;
#X obj 313 170 loadbang;
#X obj 68 198 metro \$2;
#X obj 145 204 metro \$2;
#X obj 230 202 metro \$2;
#X obj 312 197 metro \$2;
#X obj 60 144 sin~;
#X obj 133 146 cos~;
#X obj 197 50 inlet freq;
#X obj 394 220 snapshot~;
#X obj 395 165 loadbang;
#X obj 394 192 metro \$2;
#X obj 384 124 noise~;
#X obj 198 298 mux 1 2 3 4 5;
#X text 50 73 sin \, cos \, ramp \, tri \, noise;
#X connect 0 0 24 0;
#X connect 1 0 13 0;
#X connect 4 0 5 0;
#X connect 4 0 18 0;
#X connect 4 0 17 0;
#X connect 5 0 24 2;
#X connect 6 0 15 0;
#X connect 7 0 24 5;
#X connect 8 0 24 1;
#X connect 9 0 14 0;
#X connect 10 0 11 0;
#X connect 11 0 24 3;
#X connect 12 0 16 0;
#X connect 13 0 0 0;
#X connect 14 0 8 0;
#X connect 15 0 5 0;
#X connect 16 0 11 0;
#X connect 17 0 0 0;
#X connect 18 0 8 0;
#X connect 19 0 4 0;
#X connect 19 0 10 0;
#X connect 20 0 24 4;
#X connect 21 0 22 0;
#X connect 22 0 20 0;
#X connect 23 0 20 0;
#X connect 24 0 2 0;
