#N canvas 588 237 542 397 10;
#X obj 68 226 snapshot~;
#X obj 69 171 loadbang;
#X obj 194 357 outlet;
#X text 377 92 output snapshotted sin wave for control;
#X obj 183 110 phasor~ \$1;
#X obj 230 230 snapshot~;
#X obj 231 175 loadbang;
#X obj 453 128 inlet waveform;
#X obj 145 232 snapshot~;
#X obj 146 177 loadbang;
#X obj 302 129 tri~ \$1;
#X obj 312 225 snapshot~;
#X obj 313 170 loadbang;
#X obj 68 198 metro \$2;
#X obj 145 204 metro \$2;
#X obj 230 202 metro \$2;
#X obj 312 197 metro \$2;
#X obj 198 298 mux 1 2 3 4;
#X obj 60 144 sin~;
#X obj 133 146 cos~;
#X text 50 73 sin \, cos \, ramp \, tri;
#X connect 0 0 17 0;
#X connect 1 0 13 0;
#X connect 4 0 5 0;
#X connect 4 0 19 0;
#X connect 4 0 18 0;
#X connect 5 0 17 2;
#X connect 6 0 15 0;
#X connect 7 0 17 4;
#X connect 8 0 17 1;
#X connect 9 0 14 0;
#X connect 10 0 11 0;
#X connect 11 0 17 3;
#X connect 12 0 16 0;
#X connect 13 0 0 0;
#X connect 14 0 8 0;
#X connect 15 0 5 0;
#X connect 16 0 11 0;
#X connect 17 0 2 0;
#X connect 18 0 0 0;
#X connect 19 0 8 0;
