#N canvas 0 0 450 300 10;
#X msg 60 153 create \, 1;
#X msg 196 154 destroy;
#X obj 133 40 inlet;
#X obj 151 238 outlet;
#X obj 139 90 t b b;
#X connect 0 0 3 0;
#X connect 1 0 3 0;
#X connect 2 0 4 0;
#X connect 4 0 0 0;
#X connect 4 1 1 0;
